<svg xmlns="http://www.w3.org/2000/svg" viewBox="0 0 32 32" fill="none"><rect width="32" height="32" rx="9" fill="#6de5d0"/><path d="M16 29V18M16 22.5 10.5 19M16 25.5 21.5 22" stroke="#0d2132" stroke-width="2.5" stroke-linecap="round"/><path d="M16 19c-4.8 0-8.7-2.8-8.7-6.3 0-2.6 2.3-4.8 5.7-5.8C13.3 3.6 14.5 2 16 2s2.7 1.6 3 4.9c3.4 1 5.7 3.2 5.7 5.8 0 3.5-3.9 6.3-8.7 6.3Z" fill="#0d2132"/><path d="M10 14.3c1.8 1.2 3.8 1.8 6 1.8s4.2-.6 6-1.8" stroke="#6de5d0" stroke-width="1.5" stroke-linecap="round" opacity=".6"/></svg>
